<?xml version="1.0" encoding="utf-8" ?><svg xmlns="http://www.w3.org/2000/svg" xmlns:xlink="http://www.w3.org/1999/xlink" width="512" height="512" viewBox="0 0 512 512"><path fill="#2B2D42" d="M84.436 103.017L289.273 103.012C306.19 103.032 313.366 107.774 313.372 126.925L313.36 138.122C332.182 139.352 340.592 138.745 340.672 161.986L340.666 207.257L419.741 207.237C447.739 207.166 445.478 218.508 445.474 243.211L445.493 375.748C445.504 389.823 446.804 401.246 428.675 404.244L259.761 404.227C249.705 404.222 231.091 406.421 228.984 391.956C228.005 385.237 228.481 376.985 228.484 370.022L228.469 327.208L130.789 327.225C117.323 327.23 100.058 327.09 102.043 307.116L90.8264 307.144C72.5487 307.143 66.989 304.011 67.0018 284.59L67.0161 132.422C67.0186 119.149 66.4557 104.844 84.436 103.017Z"/><path fill="#8D99AE" d="M240.15 379.239L240.147 241.785C240.143 221.877 235.758 219.095 255.176 219.197L426.249 219.25C437.054 219.322 433.704 233.658 433.703 242.011L433.688 379.239C433.674 382.61 433.841 385.936 433.688 389.313C429.63 393.865 417.605 392.262 411.584 392.255L251.413 392.255C246.866 392.255 243.073 393.308 240.15 389.313C239.932 387.001 240.129 381.781 240.15 379.239Z"/><path fill="#EDF2F4" d="M240.15 379.239C247.167 379.37 254.517 379.239 261.566 379.238L433.688 379.239C433.674 382.61 433.841 385.936 433.688 389.313C429.63 393.865 417.605 392.262 411.584 392.255L251.413 392.255C246.866 392.255 243.073 393.308 240.15 389.313C239.932 387.001 240.129 381.781 240.15 379.239Z"/><path fill="#8D99AE" d="M113.87 302.818L113.863 173.25C113.863 169.519 112.53 153.236 115.456 150.84C117.182 149.427 153.009 150.074 158.083 150.073L312.96 150.072C318.626 150.071 328.309 148.037 328.755 155.973C329.261 164.989 329.07 174.218 329.07 183.316L329.069 199.184C329.07 201.588 329.192 204.933 329.058 207.257L253.202 207.236C239.739 207.193 228.297 209.602 228.346 225.965L228.469 302.818L228.469 315.495L119.72 315.411C112.871 315.374 113.967 307.909 113.87 302.818Z"/><path fill="#EDF2F4" d="M113.87 302.818C125.8 302.456 139.738 302.817 151.858 302.818L228.469 302.818L228.469 315.495L119.72 315.411C112.871 315.374 113.967 307.909 113.87 302.818Z"/><defs><linearGradient id="gradient_0" gradientUnits="userSpaceOnUse" x1="48.277321" y1="230.0881" x2="283.069" y2="96.43853"><stop offset="0" stop-color="#3B3738"/><stop offset="1" stop-color="#9998C2"/></linearGradient></defs><path fill="url(#gradient_0)" d="M87.9086 114.866C92.2996 114.713 97.2542 114.849 101.681 114.859L274.345 114.847C276.888 114.844 280.918 114.706 283.318 114.866C296.589 114.849 301.37 111.741 301.307 127.261L301.307 138.122L132.85 138.126C123.463 138.126 104.31 135.584 102.529 149.167C101.737 155.208 102.03 162.126 102.03 168.283L102.043 285.21L102.043 295.464L90.2149 295.502C74.1262 295.576 78.6701 287.814 78.752 272.617L78.752 127.261C78.6234 119.399 78.5905 115.207 87.9086 114.866Z"/><path fill="#EBF0F2" d="M283.318 114.866C296.589 114.849 301.37 111.741 301.307 127.261L231.835 127.261C234.209 122.009 234.11 120.489 233.705 114.866L267.715 114.853C271.377 114.855 280.086 115.173 283.318 114.866Z"/><path fill="#EBF0F2" d="M78.752 127.261C78.6234 119.399 78.5905 115.207 87.9086 114.866C94.0698 115.147 101.753 114.844 108.097 114.866C104.311 119.079 101.878 122.01 99.4343 127.261C96.4679 127.411 81.0403 127.743 78.752 127.261Z"/><path fill="#3B3738" d="M78.752 272.617C79.0428 274.418 78.726 282.789 78.752 285.21L102.043 285.21L102.043 295.464L90.2149 295.502C74.1262 295.576 78.6701 287.814 78.752 272.617Z"/><path fill="#EBF0F2" d="M114.97 114.866L227.46 114.866L227.502 115.371C227.852 120.019 227.615 127.141 221.405 127.261L118.645 127.27C98.8839 127.262 112.865 122.57 114.97 114.866Z"/></svg>